{
    "asset": {
        "copyright": "2025 (c) Adobe Inc.",
        "generator": "Adobe Substance 3D Stager - 71e900fc2bce8c66db9475ffdc4ac3f89b2e4b0c",
        "version": "2.0",
        "extensions": {
            "KHR_xmp_json_ld": {
                "packet": 0
            }
        }
    },
    "accessors": [
        {
            "bufferView": 0,
            "componentType": 5126,
            "count": 379264,
            "type": "VEC3",
            "max": [
                0.0024419776163995268,
                0.00003071289393119514,
                0.0002592752571217716
            ],
            "min": [
                -0.0024419776163995268,
                -0.00003057120557059534,
                -0.00004270633144187741
            ]
        },
        {
            "bufferView": 1,
            "componentType": 5126,
            "count": 379264,
            "type": "VEC3"
        },
        {
            "bufferView": 2,
            "componentType": 5126,
            "count": 379264,
            "type": "VEC4"
        },
        {
            "bufferView": 3,
            "componentType": 5126,
            "count": 379264,
            "type": "VEC2"
        },
        {
            "bufferView": 4,
            "componentType": 5125,
            "count": 568896,
            "type": "SCALAR",
            "max": [
                379263.0
            ],
            "min": [
                0.0
            ]
        },
        {
            "bufferView": 5,
            "componentType": 5126,
            "count": 165856,
            "type": "VEC3",
            "max": [
                0.0009338725358247757,
                0.00005828957728226669,
                0.00016640721878502518
            ],
            "min": [
                -0.0009338725358247757,
                -0.00010909535922110081,
                -0.00004318262654123828
            ]
        },
        {
            "bufferView": 6,
            "componentType": 5126,
            "count": 165856,
            "type": "VEC3"
        },
        {
            "bufferView": 7,
            "componentType": 5126,
            "count": 165856,
            "type": "VEC4"
        },
        {
            "bufferView": 8,
            "componentType": 5126,
            "count": 165856,
            "type": "VEC2"
        },
        {
            "bufferView": 9,
            "componentType": 5125,
            "count": 248784,
            "type": "SCALAR",
            "max": [
                165855.0
            ],
            "min": [
                0.0
            ]
        },
        {
            "bufferView": 10,
            "componentType": 5126,
            "count": 17664,
            "type": "VEC3",
            "max": [
                0.0024974620901048185,
                0.0014969405019655824,
                0.001693440368399024
            ],
            "min": [
                -0.0024974620901048185,
                -0.001497027580626309,
                -0.0016936050960794092
            ]
        },
        {
            "bufferView": 11,
            "componentType": 5126,
            "count": 17664,
            "type": "VEC3"
        },
        {
            "bufferView": 12,
            "componentType": 5126,
            "count": 17664,
            "type": "VEC4"
        },
        {
            "bufferView": 13,
            "componentType": 5126,
            "count": 17664,
            "type": "VEC2"
        },
        {
            "bufferView": 14,
            "componentType": 5125,
            "count": 26496,
            "type": "SCALAR",
            "max": [
                17663.0
            ],
            "min": [
                0.0
            ]
        },
        {
            "bufferView": 15,
            "componentType": 5126,
            "count": 16128,
            "type": "VEC3",
            "max": [
                0.0025787155609577896,
                0.00008538112160749733,
                0.00015348027227446437
            ],
            "min": [
                -0.0025787155609577896,
                -0.0000854469690239057,
                -0.0001534803450340405
            ]
        },
        {
            "bufferView": 16,
            "componentType": 5126,
            "count": 16128,
            "type": "VEC3"
        },
        {
            "bufferView": 17,
            "componentType": 5126,
            "count": 16128,
            "type": "VEC4"
        },
        {
            "bufferView": 18,
            "componentType": 5126,
            "count": 16128,
            "type": "VEC2"
        },
        {
            "bufferView": 19,
            "componentType": 5125,
            "count": 24192,
            "type": "SCALAR",
            "max": [
                16127.0
            ],
            "min": [
                0.0
            ]
        },
        {
            "bufferView": 20,
            "componentType": 5126,
            "count": 23028,
            "type": "VEC3",
            "max": [
                0.0030785638373345138,
                0.0014676625141873956,
                0.0017517823725938798
            ],
            "min": [
                -0.0030757563654333355,
                -0.0014629341894760728,
                -0.001752160140313208
            ]
        },
        {
            "bufferView": 21,
            "componentType": 5126,
            "count": 23028,
            "type": "VEC3"
        },
        {
            "bufferView": 22,
            "componentType": 5126,
            "count": 23028,
            "type": "VEC2"
        },
        {
            "bufferView": 23,
            "componentType": 5125,
            "count": 34488,
            "type": "SCALAR",
            "max": [
                23027.0
            ],
            "min": [
                0.0
            ]
        },
        {
            "bufferView": 24,
            "componentType": 5126,
            "count": 16564,
            "type": "VEC3",
            "max": [
                0.0011123598087579012,
                0.0008902449044398963,
                0.00012010234786430374
            ],
            "min": [
                -0.0011135267559438944,
                -0.0008899809909053147,
                -0.00012266608246136457
            ]
        },
        {
            "bufferView": 25,
            "componentType": 5126,
            "count": 16564,
            "type": "VEC3"
        },
        {
            "bufferView": 26,
            "componentType": 5126,
            "count": 16564,
            "type": "VEC2"
        },
        {
            "bufferView": 27,
            "componentType": 5125,
            "count": 24768,
            "type": "SCALAR",
            "max": [
                16563.0
            ],
            "min": [
                0.0
            ]
        },
        {
            "bufferView": 28,
            "componentType": 5126,
            "count": 15456,
            "type": "VEC3",
            "max": [
                0.0024528237991034986,
                0.00011004369298461825,
                0.00007955038017826155
            ],
            "min": [
                -0.0024528242647647859,
                -0.00011027655273210257,
                -0.00008028330194065347
            ]
        },
        {
            "bufferView": 29,
            "componentType": 5126,
            "count": 15456,
            "type": "VEC3"
        },
        {
            "bufferView": 30,
            "componentType": 5126,
            "count": 15456,
            "type": "VEC4"
        },
        {
            "bufferView": 31,
            "componentType": 5126,
            "count": 15456,
            "type": "VEC2"
        },
        {
            "bufferView": 32,
            "componentType": 5125,
            "count": 23184,
            "type": "SCALAR",
            "max": [
                15455.0
            ],
            "min": [
                0.0
            ]
        },
        {
            "bufferView": 33,
            "componentType": 5126,
            "count": 15456,
            "type": "VEC3",
            "max": [
                0.0024528242647647859,
                0.00011004364205291495,
                0.00008028329466469586
            ],
            "min": [
                -0.0024528237991034986,
                -0.00011027668369933963,
                -0.00007955000910442322
            ]
        },
        {
            "bufferView": 34,
            "componentType": 5126,
            "count": 15456,
            "type": "VEC3"
        },
        {
            "bufferView": 35,
            "componentType": 5126,
            "count": 15456,
            "type": "VEC4"
        },
        {
            "bufferView": 36,
            "componentType": 5126,
            "count": 15456,
            "type": "VEC2"
        },
        {
            "bufferView": 37,
            "componentType": 5125,
            "count": 23184,
            "type": "SCALAR",
            "max": [
                15455.0
            ],
            "min": [
                0.0
            ]
        },
        {
            "bufferView": 38,
            "componentType": 5126,
            "count": 1760,
            "type": "VEC3",
            "max": [
                0.0009438404813408852,
                0.000031268849852494898,
                0.000027488938940223308
            ],
            "min": [
                -0.0009438404813408852,
                -0.000031293729989556599,
                -0.000027520112780621276
            ]
        },
        {
            "bufferView": 39,
            "componentType": 5126,
            "count": 1760,
            "type": "VEC3"
        },
        {
            "bufferView": 40,
            "componentType": 5126,
            "count": 1760,
            "type": "VEC4"
        },
        {
            "bufferView": 41,
            "componentType": 5126,
            "count": 1760,
            "type": "VEC2"
        },
        {
            "bufferView": 42,
            "componentType": 5125,
            "count": 2640,
            "type": "SCALAR",
            "max": [
                1759.0
            ],
            "min": [
                0.0
            ]
        },
        {
            "bufferView": 43,
            "componentType": 5126,
            "count": 5344,
            "type": "VEC3",
            "max": [
                0.0024518738500773908,
                0.000012810658517992124,
                0.00005873883128515445
            ],
            "min": [
                -0.0024518738500773908,
                -0.000012653340490942356,
                -0.00005847544889547862
            ]
        },
        {
            "bufferView": 44,
            "componentType": 5126,
            "count": 5344,
            "type": "VEC3"
        },
        {
            "bufferView": 45,
            "componentType": 5126,
            "count": 5344,
            "type": "VEC4"
        },
        {
            "bufferView": 46,
            "componentType": 5126,
            "count": 5344,
            "type": "VEC2"
        },
        {
            "bufferView": 47,
            "componentType": 5125,
            "count": 8016,
            "type": "SCALAR",
            "max": [
                5343.0
            ],
            "min": [
                0.0
            ]
        },
        {
            "bufferView": 48,
            "componentType": 5126,
            "count": 5760,
            "type": "VEC3",
            "max": [
                0.00014648778596892953,
                0.00016748206689953804,
                0.00011847884888993576
            ],
            "min": [
                -0.0001464967936044559,
                -0.00016753569070715457,
                -0.00011870195157825947
            ]
        },
        {
            "bufferView": 49,
            "componentType": 5126,
            "count": 5760,
            "type": "VEC3"
        },
        {
            "bufferView": 50,
            "componentType": 5126,
            "count": 5760,
            "type": "VEC4"
        },
        {
            "bufferView": 51,
            "componentType": 5126,
            "count": 5760,
            "type": "VEC2"
        },
        {
            "bufferView": 52,
            "componentType": 5125,
            "count": 8640,
            "type": "SCALAR",
            "max": [
                5759.0
            ],
            "min": [
                0.0
            ]
        },
        {
            "bufferView": 53,
            "componentType": 5126,
            "count": 5760,
            "type": "VEC3",
            "max": [
                0.0001464968518121168,
                0.00016748202324379236,
                0.00011870192975038663
            ],
            "min": [
                -0.00014648781507275999,
                -0.00016753571981098503,
                -0.00011847879795823246
            ]
        },
        {
            "bufferView": 54,
            "componentType": 5126,
            "count": 5760,
            "type": "VEC3"
        },
        {
            "bufferView": 55,
            "componentType": 5126,
            "count": 5760,
            "type": "VEC4"
        },
        {
            "bufferView": 56,
            "componentType": 5126,
            "count": 5760,
            "type": "VEC2"
        },
        {
            "bufferView": 57,
            "componentType": 5126,
            "count": 8160,
            "type": "VEC3",
            "max": [
                0.00012260930088814348,
                0.00014446678687818348,
                0.00005298316682456061
            ],
            "min": [
                -0.0001229397748829797,
                -0.00014455663040280342,
                -0.00005310298001859337
            ]
        },
        {
            "bufferView": 58,
            "componentType": 5126,
            "count": 8160,
            "type": "VEC3"
        },
        {
            "bufferView": 59,
            "componentType": 5126,
            "count": 8160,
            "type": "VEC4"
        },
        {
            "bufferView": 60,
            "componentType": 5126,
            "count": 8160,
            "type": "VEC2"
        },
        {
            "bufferView": 61,
            "componentType": 5125,
            "count": 12240,
            "type": "SCALAR",
            "max": [
                8159.0
            ],
            "min": [
                0.0
            ]
        },
        {
            "bufferView": 62,
            "componentType": 5126,
            "count": 8160,
            "type": "VEC3",
            "max": [
                0.0001229397748829797,
                0.0001444666413590312,
                0.00005310296546667814
            ],
            "min": [
                -0.00012260930088814348,
                -0.00014455670316237956,
                -0.00005298320684232749
            ]
        },
        {
            "bufferView": 63,
            "componentType": 5126,
            "count": 8160,
            "type": "VEC3"
        },
        {
            "bufferView": 64,
            "componentType": 5126,
            "count": 8160,
            "type": "VEC4"
        },
        {
            "bufferView": 65,
            "componentType": 5126,
            "count": 8160,
            "type": "VEC2"
        },
        {
            "bufferView": 66,
            "componentType": 5126,
            "count": 6528,
            "type": "VEC3",
            "max": [
                0.00010701127030188218,
                0.00005990610952721909,
                0.00023072799376677722
            ],
            "min": [
                -0.00010701137944124639,
                -0.00005990363206365146,
                -0.0002307279355591163
            ]
        },
        {
            "bufferView": 67,
            "componentType": 5126,
            "count": 6528,
            "type": "VEC3"
        },
        {
            "bufferView": 68,
            "componentType": 5126,
            "count": 6528,
            "type": "VEC4"
        },
        {
            "bufferView": 69,
            "componentType": 5126,
            "count": 6528,
            "type": "VEC2"
        },
        {
            "bufferView": 70,
            "componentType": 5125,
            "count": 9792,
            "type": "SCALAR",
            "max": [
                6527.0
            ],
            "min": [
                0.0
            ]
        },
        {
            "bufferView": 71,
            "componentType": 5126,
            "count": 6528,
            "type": "VEC3",
            "max": [
                0.00010701143037294969,
                0.000059906360547756779,
                0.0002307280810782686
            ],
            "min": [
                -0.00010701145947678015,
                -0.00005990373756503686,
                -0.00023072805197443813
            ]
        },
        {
            "bufferView": 72,
            "componentType": 5126,
            "count": 6528,
            "type": "VEC3"
        },
        {
            "bufferView": 73,
            "componentType": 5126,
            "count": 6528,
            "type": "VEC4"
        },
        {
            "bufferView": 74,
            "componentType": 5126,
            "count": 6528,
            "type": "VEC2"
        },
        {
            "bufferView": 75,
            "componentType": 5125,
            "count": 9792,
            "type": "SCALAR",
            "max": [
                6527.0
            ],
            "min": [
                0.0
            ]
        },
        {
            "bufferView": 76,
            "componentType": 5126,
            "count": 53808,
            "type": "VEC3",
            "max": [
                0.001321494346484542,
                0.0008652700926177204,
                0.0007149036973714829
            ],
            "min": [
                -0.001321494346484542,
                -0.0008658646838739514,
                -0.0007149886805564165
            ]
        },
        {
            "bufferView": 77,
            "componentType": 5126,
            "count": 53808,
            "type": "VEC3"
        },
        {
            "bufferView": 78,
            "componentType": 5126,
            "count": 53808,
            "type": "VEC4"
        },
        {
            "bufferView": 79,
            "componentType": 5126,
            "count": 53808,
            "type": "VEC2"
        },
        {
            "bufferView": 80,
            "componentType": 5125,
            "count": 80712,
            "type": "SCALAR",
            "max": [
                53807.0
            ],
            "min": [
                0.0
            ]
        },
        {
            "bufferView": 81,
            "componentType": 5126,
            "count": 53808,
            "type": "VEC3",
            "max": [
                0.001321494346484542,
                0.000865270325448364,
                0.0007149890880100429
            ],
            "min": [
                -0.00132149423006922,
                -0.0008658647420816124,
                -0.0007149041048251092
            ]
        },
        {
            "bufferView": 82,
            "componentType": 5126,
            "count": 53808,
            "type": "VEC3"
        },
        {
            "bufferView": 83,
            "componentType": 5126,
            "count": 53808,
            "type": "VEC4"
        },
        {
            "bufferView": 84,
            "componentType": 5126,
            "count": 53808,
            "type": "VEC2"
        },
        {
            "bufferView": 85,
            "componentType": 5125,
            "count": 80712,
            "type": "SCALAR",
            "max": [
                53807.0
            ],
            "min": [
                0.0
            ]
        },
        {
            "bufferView": 86,
            "componentType": 5126,
            "count": 52448,
            "type": "VEC3",
            "max": [
                0.0027996408753097059,
                0.001505178981460631,
                0.0017001873347908259
            ],
            "min": [
                -0.002799640642479062,
                -0.001504457090049982,
                -0.0017001871019601822
            ]
        },
        {
            "bufferView": 87,
            "componentType": 5126,
            "count": 52448,
            "type": "VEC3"
        },
        {
            "bufferView": 88,
            "componentType": 5126,
            "count": 52448,
            "type": "VEC4"
        },
        {
            "bufferView": 89,
            "componentType": 5126,
            "count": 52448,
            "type": "VEC2"
        },
        {
            "bufferView": 90,
            "componentType": 5125,
            "count": 78672,
            "type": "SCALAR",
            "max": [
                52447.0
            ],
            "min": [
                0.0
            ]
        }
    ],
    "bufferViews": [
        {
            "buffer": 0,
            "byteOffset": 0,
            "byteLength": 4551168,
            "target": 34962
        },
        {
            "buffer": 0,
            "byteOffset": 4551168,
            "byteLength": 4551168,
            "target": 34962
        },
        {
            "buffer": 0,
            "byteOffset": 9102336,
            "byteLength": 6068224,
            "target": 34962
        },
        {
            "buffer": 0,
            "byteOffset": 15170560,
            "byteLength": 3034112,
            "target": 34962
        },
        {
            "buffer": 0,
            "byteOffset": 18204672,
            "byteLength": 2275584,
            "target": 34963
        },
        {
            "buffer": 0,
            "byteOffset": 20480256,
            "byteLength": 1990272,
            "target": 34962
        },
        {
            "buffer": 0,
            "byteOffset": 22470528,
            "byteLength": 1990272,
            "target": 34962
        },
        {
            "buffer": 0,
            "byteOffset": 24460800,
            "byteLength": 2653696,
            "target": 34962
        },
        {
            "buffer": 0,
            "byteOffset": 27114496,
            "byteLength": 1326848,
            "target": 34962
        },
        {
            "buffer": 0,
            "byteOffset": 28441344,
            "byteLength": 995136,
            "target": 34963
        },
        {
            "buffer": 0,
            "byteOffset": 29436480,
            "byteLength": 211968,
            "target": 34962
        },
        {
            "buffer": 0,
            "byteOffset": 29648448,
            "byteLength": 211968,
            "target": 34962
        },
        {
            "buffer": 0,
            "byteOffset": 29860416,
            "byteLength": 282624,
            "target": 34962
        },
        {
            "buffer": 0,
            "byteOffset": 30143040,
            "byteLength": 141312,
            "target": 34962
        },
        {
            "buffer": 0,
            "byteOffset": 30284352,
            "byteLength": 105984,
            "target": 34963
        },
        {
            "buffer": 0,
            "byteOffset": 30390336,
            "byteLength": 193536,
            "target": 34962
        },
        {
            "buffer": 0,
            "byteOffset": 30583872,
            "byteLength": 193536,
            "target": 34962
        },
        {
            "buffer": 0,
            "byteOffset": 30777408,
            "byteLength": 258048,
            "target": 34962
        },
        {
            "buffer": 0,
            "byteOffset": 31035456,
            "byteLength": 129024,
            "target": 34962
        },
        {
            "buffer": 0,
            "byteOffset": 31164480,
            "byteLength": 96768,
            "target": 34963
        },
        {
            "buffer": 0,
            "byteOffset": 31261248,
            "byteLength": 276336,
            "target": 34962
        },
        {
            "buffer": 0,
            "byteOffset": 31537584,
            "byteLength": 276336,
            "target": 34962
        },
        {
            "buffer": 0,
            "byteOffset": 31813920,
            "byteLength": 184224,
            "target": 34962
        },
        {
            "buffer": 0,
            "byteOffset": 31998144,
            "byteLength": 137952,
            "target": 34963
        },
        {
            "buffer": 0,
            "byteOffset": 32136096,
            "byteLength": 198768,
            "target": 34962
        },
        {
            "buffer": 0,
            "byteOffset": 32334864,
            "byteLength": 198768,
            "target": 34962
        },
        {
            "buffer": 0,
            "byteOffset": 32533632,
            "byteLength": 132512,
            "target": 34962
        },
        {
            "buffer": 0,
            "byteOffset": 32666144,
            "byteLength": 99072,
            "target": 34963
        },
        {
            "buffer": 0,
            "byteOffset": 32765216,
            "byteLength": 185472,
            "target": 34962
        },
        {
            "buffer": 0,
            "byteOffset": 32950688,
            "byteLength": 185472,
            "target": 34962
        },
        {
            "buffer": 0,
            "byteOffset": 33136160,
            "byteLength": 247296,
            "target": 34962
        },
        {
            "buffer": 0,
            "byteOffset": 33383456,
            "byteLength": 123648,
            "target": 34962
        },
        {
            "buffer": 0,
            "byteOffset": 33507104,
            "byteLength": 92736,
            "target": 34963
        },
        {
            "buffer": 0,
            "byteOffset": 33599840,
            "byteLength": 185472,
            "target": 34962
        },
        {
            "buffer": 0,
            "byteOffset": 33785312,
            "byteLength": 185472,
            "target": 34962
        },
        {
            "buffer": 0,
            "byteOffset": 33970784,
            "byteLength": 247296,
            "target": 34962
        },
        {
            "buffer": 0,
            "byteOffset": 34218080,
            "byteLength": 123648,
            "target": 34962
        },
        {
            "buffer": 0,
            "byteOffset": 34341728,
            "byteLength": 92736,
            "target": 34963
        },
        {
            "buffer": 0,
            "byteOffset": 34434464,
            "byteLength": 21120,
            "target": 34962
        },
        {
            "buffer": 0,
            "byteOffset": 34455584,
            "byteLength": 21120,
            "target": 34962
        },
        {
            "buffer": 0,
            "byteOffset": 34476704,
            "byteLength": 28160,
            "target": 34962
        },
        {
            "buffer": 0,
            "byteOffset": 34504864,
            "byteLength": 14080,
            "target": 34962
        },
        {
            "buffer": 0,
            "byteOffset": 34518944,
            "byteLength": 10560,
            "target": 34963
        },
        {
            "buffer": 0,
            "byteOffset": 34529504,
            "byteLength": 64128,
            "target": 34962
        },
        {
            "buffer": 0,
            "byteOffset": 34593632,
            "byteLength": 64128,
            "target": 34962
        },
        {
            "buffer": 0,
            "byteOffset": 34657760,
            "byteLength": 85504,
            "target": 34962
        },
        {
            "buffer": 0,
            "byteOffset": 34743264,
            "byteLength": 42752,
            "target": 34962
        },
        {
            "buffer": 0,
            "byteOffset": 34786016,
            "byteLength": 32064,
            "target": 34963
        },
        {
            "buffer": 0,
            "byteOffset": 34818080,
            "byteLength": 69120,
            "target": 34962
        },
        {
            "buffer": 0,
            "byteOffset": 34887200,
            "byteLength": 69120,
            "target": 34962
        },
        {
            "buffer": 0,
            "byteOffset": 34956320,
            "byteLength": 92160,
            "target": 34962
        },
        {
            "buffer": 0,
            "byteOffset": 35048480,
            "byteLength": 46080,
            "target": 34962
        },
        {
            "buffer": 0,
            "byteOffset": 35094560,
            "byteLength": 34560,
            "target": 34963
        },
        {
            "buffer": 0,
            "byteOffset": 35129120,
            "byteLength": 69120,
            "target": 34962
        },
        {
            "buffer": 0,
            "byteOffset": 35198240,
            "byteLength": 69120,
            "target": 34962
        },
        {
            "buffer": 0,
            "byteOffset": 35267360,
            "byteLength": 92160,
            "target": 34962
        },
        {
            "buffer": 0,
            "byteOffset": 35359520,
            "byteLength": 46080,
            "target": 34962
        },
        {
            "buffer": 0,
            "byteOffset": 35405600,
            "byteLength": 97920,
            "target": 34962
        },
        {
            "buffer": 0,
            "byteOffset": 35503520,
            "byteLength": 97920,
            "target": 34962
        },
        {
            "buffer": 0,
            "byteOffset": 35601440,
            "byteLength": 130560,
            "target": 34962
        },
        {
            "buffer": 0,
            "byteOffset": 35732000,
            "byteLength": 65280,
            "target": 34962
        },
        {
            "buffer": 0,
            "byteOffset": 35797280,
            "byteLength": 48960,
            "target": 34963
        },
        {
            "buffer": 0,
            "byteOffset": 35846240,
            "byteLength": 97920,
            "target": 34962
        },
        {
            "buffer": 0,
            "byteOffset": 35944160,
            "byteLength": 97920,
            "target": 34962
        },
        {
            "buffer": 0,
            "byteOffset": 36042080,
            "byteLength": 130560,
            "target": 34962
        },
        {
            "buffer": 0,
            "byteOffset": 36172640,
            "byteLength": 65280,
            "target": 34962
        },
        {
            "buffer": 0,
            "byteOffset": 36237920,
            "byteLength": 78336,
            "target": 34962
        },
        {
            "buffer": 0,
            "byteOffset": 36316256,
            "byteLength": 78336,
            "target": 34962
        },
        {
            "buffer": 0,
            "byteOffset": 36394592,
            "byteLength": 104448,
            "target": 34962
        },
        {
            "buffer": 0,
            "byteOffset": 36499040,
            "byteLength": 52224,
            "target": 34962
        },
        {
            "buffer": 0,
            "byteOffset": 36551264,
            "byteLength": 39168,
            "target": 34963
        },
        {
            "buffer": 0,
            "byteOffset": 36590432,
            "byteLength": 78336,
            "target": 34962
        },
        {
            "buffer": 0,
            "byteOffset": 36668768,
            "byteLength": 78336,
            "target": 34962
        },
        {
            "buffer": 0,
            "byteOffset": 36747104,
            "byteLength": 104448,
            "target": 34962
        },
        {
            "buffer": 0,
            "byteOffset": 36851552,
            "byteLength": 52224,
            "target": 34962
        },
        {
            "buffer": 0,
            "byteOffset": 36903776,
            "byteLength": 39168,
            "target": 34963
        },
        {
            "buffer": 0,
            "byteOffset": 36942944,
            "byteLength": 645696,
            "target": 34962
        },
        {
            "buffer": 0,
            "byteOffset": 37588640,
            "byteLength": 645696,
            "target": 34962
        },
        {
            "buffer": 0,
            "byteOffset": 38234336,
            "byteLength": 860928,
            "target": 34962
        },
        {
            "buffer": 0,
            "byteOffset": 39095264,
            "byteLength": 430464,
            "target": 34962
        },
        {
            "buffer": 0,
            "byteOffset": 39525728,
            "byteLength": 322848,
            "target": 34963
        },
        {
            "buffer": 0,
            "byteOffset": 39848576,
            "byteLength": 645696,
            "target": 34962
        },
        {
            "buffer": 0,
            "byteOffset": 40494272,
            "byteLength": 645696,
            "target": 34962
        },
        {
            "buffer": 0,
            "byteOffset": 41139968,
            "byteLength": 860928,
            "target": 34962
        },
        {
            "buffer": 0,
            "byteOffset": 42000896,
            "byteLength": 430464,
            "target": 34962
        },
        {
            "buffer": 0,
            "byteOffset": 42431360,
            "byteLength": 322848,
            "target": 34963
        },
        {
            "buffer": 0,
            "byteOffset": 42754208,
            "byteLength": 629376,
            "target": 34962
        },
        {
            "buffer": 0,
            "byteOffset": 43383584,
            "byteLength": 629376,
            "target": 34962
        },
        {
            "buffer": 0,
            "byteOffset": 44012960,
            "byteLength": 839168,
            "target": 34962
        },
        {
            "buffer": 0,
            "byteOffset": 44852128,
            "byteLength": 419584,
            "target": 34962
        },
        {
            "buffer": 0,
            "byteOffset": 45271712,
            "byteLength": 314688,
            "target": 34963
        }
    ],
    "buffers": [
        {
            "byteLength": 45586400,
            "uri": "studio_packshot_binary.bin"
        }
    ],
    "cameras": [
        {
            "perspective": {
                "znear": 0.021904118359088899,
                "yfov": 0.25178632140159609,
                "zfar": 1204.7264404296876,
                "aspectRatio": 1.7777777910232545
            },
            "type": "perspective",
            "name": "camera_front"
        },
        {
            "perspective": {
                "znear": 0.021904118359088899,
                "yfov": 0.25178632140159609,
                "zfar": 1204.7264404296876,
                "aspectRatio": 1.7777777910232545
            },
            "type": "perspective",
            "name": "camera_top"
        },
        {
            "perspective": {
                "znear": 0.021904118359088899,
                "yfov": 0.25178632140159609,
                "zfar": 1204.7264404296876,
                "aspectRatio": 1.7777777910232545
            },
            "type": "perspective",
            "name": "camera_three_quarter"
        }
    ],
    "images": [
        {
            "name": "bag_base_color",
            "uri": "studio_packshot_images/bag_base_color.jpg",
            "mimeType": "image/jpeg"
        },
        {
            "name": "texture74787_texture75121",
            "uri": "studio_packshot_images/texture74787_texture75121.png",
            "mimeType": "image/png"
        },
        {
            "name": "bag_normal_opengl",
            "uri": "studio_packshot_images/bag_normal_opengl.png",
            "mimeType": "image/png"
        }
    ],
    "materials": [
        {
            "pbrMetallicRoughness": {
                "baseColorTexture": {
                    "index": 0
                },
                "metallicRoughnessTexture": {
                    "index": 1
                }
            },
            "normalTexture": {
                "index": 2
            },
            "name": "bag",
            "doubleSided": true
        }
    ],
    "meshes": [
        {
            "name": "zipper_002_mesh_n3d",
            "primitives": [
                {
                    "attributes": {
                        "TANGENT": 2,
                        "NORMAL": 1,
                        "POSITION": 0,
                        "TEXCOORD_0": 3
                    },
                    "indices": 4,
                    "material": 0
                }
            ]
        },
        {
            "name": "zipper_001_mesh_n3d",
            "primitives": [
                {
                    "attributes": {
                        "POSITION": 5,
                        "NORMAL": 6,
                        "TANGENT": 7,
                        "TEXCOORD_0": 8
                    },
                    "indices": 9,
                    "material": 0
                }
            ]
        },
        {
            "name": "side_panel_mesh_n3d",
            "primitives": [
                {
                    "attributes": {
                        "TANGENT": 12,
                        "NORMAL": 11,
                        "POSITION": 10,
                        "TEXCOORD_0": 13
                    },
                    "indices": 14,
                    "material": 0
                }
            ]
        },
        {
            "name": "shoulder_strap_003_mesh_n3d",
            "primitives": [
                {
                    "attributes": {
                        "POSITION": 15,
                        "NORMAL": 16,
                        "TANGENT": 17,
                        "TEXCOORD_0": 18
                    },
                    "indices": 19,
                    "material": 0
                }
            ]
        },
        {
            "name": "shoulder_strap_002_mesh_n3d",
            "primitives": [
                {
                    "attributes": {
                        "NORMAL": 21,
                        "POSITION": 20,
                        "TEXCOORD_0": 22
                    },
                    "indices": 23,
                    "material": 0
                }
            ]
        },
        {
            "name": "shoulder_strap_001_mesh_n3d",
            "primitives": [
                {
                    "attributes": {
                        "NORMAL": 25,
                        "POSITION": 24,
                        "TEXCOORD_0": 26
                    },
                    "indices": 27,
                    "material": 0
                }
            ]
        },
        {
            "name": "reinforcing_strip_002_mesh_n3d",
            "primitives": [
                {
                    "attributes": {
                        "POSITION": 28,
                        "NORMAL": 29,
                        "TANGENT": 30,
                        "TEXCOORD_0": 31
                    },
                    "indices": 32,
                    "material": 0
                }
            ]
        },
        {
            "name": "reinforcing_strip_001_mesh_n3d",
            "primitives": [
                {
                    "attributes": {
                        "POSITION": 33,
                        "NORMAL": 34,
                        "TANGENT": 35,
                        "TEXCOORD_0": 36
                    },
                    "indices": 37,
                    "material": 0
                }
            ]
        },
        {
            "name": "panel_002_mesh_n3d",
            "primitives": [
                {
                    "attributes": {
                        "POSITION": 38,
                        "NORMAL": 39,
                        "TANGENT": 40,
                        "TEXCOORD_0": 41
                    },
                    "indices": 42,
                    "material": 0
                }
            ]
        },
        {
            "name": "panel_001_mesh_n3d",
            "primitives": [
                {
                    "attributes": {
                        "TANGENT": 45,
                        "NORMAL": 44,
                        "POSITION": 43,
                        "TEXCOORD_0": 46
                    },
                    "indices": 47,
                    "material": 0
                }
            ]
        },
        {
            "name": "hook_004_mesh_n3d",
            "primitives": [
                {
                    "attributes": {
                        "TANGENT": 50,
                        "NORMAL": 49,
                        "POSITION": 48,
                        "TEXCOORD_0": 51
                    },
                    "indices": 52,
                    "material": 0
                }
            ]
        },
        {
            "name": "hook_003_mesh_n3d",
            "primitives": [
                {
                    "attributes": {
                        "TANGENT": 55,
                        "NORMAL": 54,
                        "POSITION": 53,
                        "TEXCOORD_0": 56
                    },
                    "indices": 52,
                    "material": 0
                }
            ]
        },
        {
            "name": "hook_002_mesh_n3d",
            "primitives": [
                {
                    "attributes": {
                        "TANGENT": 59,
                        "NORMAL": 58,
                        "POSITION": 57,
                        "TEXCOORD_0": 60
                    },
                    "indices": 61,
                    "material": 0
                }
            ]
        },
        {
            "name": "hook_001_mesh_n3d",
            "primitives": [
                {
                    "attributes": {
                        "POSITION": 62,
                        "NORMAL": 63,
                        "TANGENT": 64,
                        "TEXCOORD_0": 65
                    },
                    "indices": 61,
                    "material": 0
                }
            ]
        },
        {
            "name": "clip_002_mesh_n3d",
            "primitives": [
                {
                    "attributes": {
                        "POSITION": 66,
                        "NORMAL": 67,
                        "TANGENT": 68,
                        "TEXCOORD_0": 69
                    },
                    "indices": 70,
                    "material": 0
                }
            ]
        },
        {
            "name": "clip_001_mesh_n3d",
            "primitives": [
                {
                    "attributes": {
                        "POSITION": 71,
                        "NORMAL": 72,
                        "TANGENT": 73,
                        "TEXCOORD_0": 74
                    },
                    "indices": 75,
                    "material": 0
                }
            ]
        },
        {
            "name": "carry_straps_002_mesh_n3d",
            "primitives": [
                {
                    "attributes": {
                        "POSITION": 76,
                        "NORMAL": 77,
                        "TANGENT": 78,
                        "TEXCOORD_0": 79
                    },
                    "indices": 80,
                    "material": 0
                }
            ]
        },
        {
            "name": "carry_straps_001_mesh_n3d",
            "primitives": [
                {
                    "attributes": {
                        "POSITION": 81,
                        "NORMAL": 82,
                        "TANGENT": 83,
                        "TEXCOORD_0": 84
                    },
                    "indices": 85,
                    "material": 0
                }
            ]
        },
        {
            "name": "bag_main_body_mesh_n3d",
            "primitives": [
                {
                    "attributes": {
                        "POSITION": 86,
                        "NORMAL": 87,
                        "TANGENT": 88,
                        "TEXCOORD_0": 89
                    },
                    "indices": 90,
                    "material": 0
                }
            ]
        }
    ],
    "nodes": [
        {
            "name": "working_cam_n3d"
        },
        {
            "children": [
                2,
                23
            ],
            "name": "assets"
        },
        {
            "children": [
                3
            ],
            "translation": [
                0.00014040949463378638,
                -0.0006992016569711268,
                0.00009162902279058471
            ],
            "rotation": [
                0.00024031866632867604,
                1.3930952360144466e-16,
                1.866077084522466e-11,
                1.0
            ],
            "name": "preview_asset_barrel_bag_grp"
        },
        {
            "children": [
                4,
                5,
                6,
                7,
                8,
                9,
                10,
                11,
                12,
                13,
                14,
                15,
                16,
                17,
                18,
                19,
                20,
                21,
                22
            ],
            "translation": [
                -0.00004040954081574455,
                0.0006992056732997298,
                0.000008034910933929496
            ],
            "rotation": [
                -0.7072766423225403,
                -8.425844555404183e-8,
                2.246684971396462e-8,
                0.7069368958473206
            ],
            "scale": [
                100.0000991821289,
                99.99998474121094,
                100.00001525878906
            ],
            "name": "handbag_barrel_root_n3d"
        },
        {
            "translation": [
                -0.000004183387773082359,
                0.0000530407705809921,
                0.003047910053282976
            ],
            "rotation": [
                0.70710688829422,
                -2.5235044851407717e-15,
                2.5007910849019108e-15,
                0.7071067094802856
            ],
            "mesh": 0,
            "name": "zipper_002_mesh_n3d"
        },
        {
            "translation": [
                -0.000004033945970149944,
                -0.0012070059310644866,
                0.0024020569398999216
            ],
            "rotation": [
                0.70710688829422,
                -2.5235044851407717e-15,
                2.5007910849019108e-15,
                0.7071067094802856
            ],
            "mesh": 1,
            "name": "zipper_001_mesh_n3d"
        },
        {
            "translation": [
                -0.0000019779199647018688,
                0.000056892567954491827,
                0.0015370589680969716
            ],
            "rotation": [
                0.70710688829422,
                -2.5235044851407717e-15,
                2.5007910849019108e-15,
                0.7071067094802856
            ],
            "mesh": 2,
            "name": "side_panel_mesh_n3d"
        },
        {
            "translation": [
                -0.0000019780159163929058,
                0.00005744515874539502,
                0.003080046968534589
            ],
            "rotation": [
                0.70710688829422,
                -2.5235044851407717e-15,
                2.5007910849019108e-15,
                0.7071067094802856
            ],
            "mesh": 3,
            "name": "shoulder_strap_003_mesh_n3d"
        },
        {
            "translation": [
                1.7763569651317037e-17,
                0.00006493400724139065,
                0.0014699258608743549
            ],
            "rotation": [
                0.70710688829422,
                -2.5235044851407717e-15,
                2.5007910849019108e-15,
                0.7071067094802856
            ],
            "mesh": 4,
            "name": "shoulder_strap_002_mesh_n3d"
        },
        {
            "translation": [
                -0.0012619330082088709,
                -0.0016988340066745878,
                0.0015172269195318223
            ],
            "rotation": [
                0.70710688829422,
                -2.5235044851407717e-15,
                2.5007910849019108e-15,
                0.7071067094802856
            ],
            "mesh": 5,
            "name": "shoulder_strap_001_mesh_n3d"
        },
        {
            "translation": [
                -0.0000022792810341343285,
                0.0014650558587163687,
                0.00225227908231318
            ],
            "rotation": [
                0.70710688829422,
                -2.5235044851407717e-15,
                2.5007910849019108e-15,
                0.7071067094802856
            ],
            "mesh": 6,
            "name": "reinforcing_strip_002_mesh_n3d"
        },
        {
            "translation": [
                -0.0000022794718006480254,
                -0.0013501590583473445,
                0.00225227908231318
            ],
            "rotation": [
                0.70710688829422,
                -2.5235044851407717e-15,
                2.5007910849019108e-15,
                0.7071067094802856
            ],
            "mesh": 7,
            "name": "reinforcing_strip_001_mesh_n3d"
        },
        {
            "translation": [
                -0.000001978683940251358,
                -0.001198565005324781,
                0.002426405902951956
            ],
            "rotation": [
                0.70710688829422,
                -2.5235044851407717e-15,
                2.5007910849019108e-15,
                0.7071067094802856
            ],
            "mesh": 8,
            "name": "panel_002_mesh_n3d"
        },
        {
            "translation": [
                -0.0000019773490294028308,
                0.00005795781908091158,
                0.003032268723472953
            ],
            "rotation": [
                0.70710688829422,
                -2.5235044851407717e-15,
                2.5007910849019108e-15,
                0.7071067094802856
            ],
            "mesh": 9,
            "name": "panel_001_mesh_n3d"
        },
        {
            "translation": [
                0.002875152975320816,
                0.000162662094226107,
                0.00285973004065454
            ],
            "rotation": [
                0.70710688829422,
                -2.5235044851407717e-15,
                2.5007910849019108e-15,
                0.7071067094802856
            ],
            "mesh": 10,
            "name": "hook_004_mesh_n3d"
        },
        {
            "translation": [
                -0.002879109000787139,
                -0.00006649206625297666,
                0.00285973004065454
            ],
            "rotation": [
                0.70710688829422,
                -2.5235044851407717e-15,
                2.5007910849019108e-15,
                0.7071067094802856
            ],
            "mesh": 11,
            "name": "hook_003_mesh_n3d"
        },
        {
            "translation": [
                0.0027421917766332628,
                0.00019186238932888955,
                0.0030067649204283954
            ],
            "rotation": [
                0.70710688829422,
                -2.5235044851407717e-15,
                2.5007910849019108e-15,
                0.7071067094802856
            ],
            "mesh": 12,
            "name": "hook_002_mesh_n3d"
        },
        {
            "translation": [
                -0.002746148034930229,
                -0.00009569244866725057,
                0.0030067649204283954
            ],
            "rotation": [
                0.70710688829422,
                -2.5235044851407717e-15,
                2.5007910849019108e-15,
                0.7071067094802856
            ],
            "mesh": 13,
            "name": "hook_001_mesh_n3d"
        },
        {
            "translation": [
                0.002617381978780031,
                0.00006261879752855748,
                0.0030912249349057676
            ],
            "rotation": [
                0.70710688829422,
                -2.5235044851407717e-15,
                2.5007910849019108e-15,
                0.7071067094802856
            ],
            "mesh": 14,
            "name": "clip_002_mesh_n3d"
        },
        {
            "translation": [
                -0.002621338004246354,
                0.00006261961243581027,
                0.0030912270303815605
            ],
            "rotation": [
                0.70710688829422,
                -2.5235044851407717e-15,
                2.5007910849019108e-15,
                0.7071067094802856
            ],
            "mesh": 15,
            "name": "clip_001_mesh_n3d"
        },
        {
            "translation": [
                -0.0000019778249225055335,
                -0.0006551714614033699,
                0.003117800923064351
            ],
            "rotation": [
                0.70710688829422,
                -2.5235044851407717e-15,
                2.5007910849019108e-15,
                0.7071067094802856
            ],
            "mesh": 16,
            "name": "carry_straps_002_mesh_n3d"
        },
        {
            "translation": [
                -0.0000019770648123085268,
                0.0007604917045682669,
                0.0031178020872175695
            ],
            "rotation": [
                0.70710688829422,
                -2.5235044851407717e-15,
                2.5007910849019108e-15,
                0.7071067094802856
            ],
            "mesh": 17,
            "name": "carry_straps_001_mesh_n3d"
        },
        {
            "translation": [
                -0.000001978110958589241,
                0.00005744808731833473,
                0.0015358939999714494
            ],
            "rotation": [
                0.70710688829422,
                -2.5235044851407717e-15,
                2.5007910849019108e-15,
                0.7071067094802856
            ],
            "mesh": 18,
            "name": "bag_main_body_mesh_n3d"
        },
        {
            "translation": [
                0.0,
                0.7599179744720459,
                0.0
            ],
            "rotation": [
                -3.774895418473534e-8,
                0.0,
                0.0,
                1.0
            ],
            "scale": [
                50.73881912231445,
                50.73881912231445,
                50.73881912231445
            ],
            "name": "top_light"
        },
        {
            "translation": [
                -194.72804260253907,
                71.79630279541016,
                1075.1239013671876
            ],
            "rotation": [
                -0.02566421777009964,
                -0.07025299966335297,
                -0.0018080559093505145,
                0.9971973896026611
            ],
            "camera": 0,
            "name": "camera_front_n3d"
        },
        {
            "translation": [
                -0.023274200037121774,
                2.711754083633423,
                0.004958354867994785
            ],
            "rotation": [
                -0.7071068286895752,
                7.30554745587142e-8,
                4.214685134229512e-8,
                0.7071067690849304
            ],
            "scale": [
                100.0,
                100.0,
                100.0
            ],
            "camera": 1,
            "name": "camera_top_n3d"
        },
        {
            "translation": [
                -1.3812190294265748,
                1.6323919296264649,
                2.3026809692382814
            ],
            "rotation": [
                -0.24278222024440766,
                -0.25116002559661868,
                -0.06523516029119492,
                0.934729814529419
            ],
            "scale": [
                100.0,
                100.0000228881836,
                100.00001525878906
            ],
            "camera": 2,
            "name": "camera_high_angle"
        }
    ],
    "samplers": [
        {}
    ],
    "scenes": [
        {
            "nodes": [
                1,
                24,
                25,
                26
            ],
            "name": "scene"
        }
    ],
    "textures": [
        {
            "name": "texture165753",
            "sampler": 0,
            "source": 0
        },
        {
            "name": "texture74787_texture75121",
            "sampler": 0,
            "source": 1
        },
        {
            "name": "texture696409",
            "sampler": 0,
            "source": 2
        }
    ],
    "scene": 0,
    "extensions": {
        "KHR_xmp_json_ld": {
            "packets": [
                {
                    "@context": {
                        "dc": "http://purl.org/dc/elements/1.1/"
                    },
                    "dc:date": "2023-05-11T08:03:37.671Z",
                    "dc:title": "studio_packshot.ssg",
                    "xmp:CreatorTool": "Adobe Substance 3D Stager"
                }
            ]
        }
    },
    "extensionsUsed": [
        "KHR_xmp_json_ld"
    ]
}